<?xml version="1.0" encoding="utf-8"?>
<!-- Generator: Adobe Illustrator 15.0.0, SVG Export Plug-In . SVG Version: 6.00 Build 0)  -->
<!DOCTYPE svg PUBLIC "-//W3C//DTD SVG 1.1//EN" "http://www.w3.org/Graphics/SVG/1.1/DTD/svg11.dtd">
<svg version="1.1" id="Layer_1" xmlns="http://www.w3.org/2000/svg" xmlns:xlink="http://www.w3.org/1999/xlink" x="0px" y="0px"
	 width="48px" height="48px" viewBox="0 0 48 48" enable-background="new 0 0 48 48" xml:space="preserve">
<rect fill-rule="evenodd" clip-rule="evenodd" fill="#3C78B5" width="48" height="48"/>
<g>
	<polygon fill-rule="evenodd" clip-rule="evenodd" fill="#93C842" points="19.445,12 41,24.445 28.557,46 7,33.556 19.445,12 	"/>
	<path fill-rule="evenodd" clip-rule="evenodd" fill="#FFFFFF" d="M31.888,40.261c-2.493,1.579-5.507,2.405-8.686,2.175
		c-0.341-0.025-0.676-0.061-1.01-0.109c-3.251-1.838-6.007-3.457-9.204-5.306c-1.898-2.421-3.003-5.467-2.959-8.709
		c-0.023-0.108,2.087-3.784,2.214-3.867c-1.403,12.612,10.952,19.404,21.157,13.154C33.464,37.575,31.943,40.272,31.888,40.261
		L31.888,40.261z"/>
	<path fill-rule="evenodd" clip-rule="evenodd" fill="#FFFFFF" d="M28.734,37.844C18.15,41.76,8.635,29.065,15.96,19.521
		c1.652-2.154,5.08-3.98,7.705-4.35C9.058,21.949,17.04,39.703,28.734,37.844L28.734,37.844z"/>
	<path fill-rule="evenodd" clip-rule="evenodd" fill="#FFFFFF" d="M22.758,35.229c-8.481-3.687-6.88-16.97,2.864-18.459
		c0.637-0.099,1.344-0.095,2.071-0.01c0.026,0.015,1.934,1.114,1.926,1.113C19.295,16.771,14.989,29.611,22.758,35.229
		L22.758,35.229z"/>
	<g>
		<path fill="#1F1A17" d="M30.021,31.375h7.699c0.164,0,0.31,0.057,0.438,0.174c0.129,0.115,0.192,0.261,0.192,0.437v3.504
			c0,0.162-0.06,0.306-0.182,0.427c-0.122,0.123-0.266,0.184-0.429,0.184H25.012c-0.177,0-0.327-0.061-0.449-0.184
			c-0.122-0.121-0.183-0.265-0.183-0.427V20.742c0-0.163,0.058-0.305,0.173-0.428c0.115-0.122,0.262-0.183,0.438-0.183h4.42
			c0.162,0,0.308,0.062,0.438,0.183c0.128,0.123,0.192,0.265,0.192,0.428L30.021,31.375z"/>
	</g>
</g>
<path fill-rule="evenodd" clip-rule="evenodd" fill="#FFFFFF" d="M20.945,10.5c0,0.414-0.168,0.789-0.439,1.061S19.859,12,19.445,12
	s-0.789-0.168-1.061-0.439s-0.439-0.646-0.439-1.061s0.168-0.789,0.439-1.061S19.031,9,19.445,9s0.789,0.168,1.061,0.439
	S20.945,10.086,20.945,10.5z"/>
<g>
	<defs>
		<polygon id="SVGID_1_" points="4.667,3.833 19.446,10.5 30.125,1.125 37.786,10.938 33.911,17.75 19.446,10.5 9.667,22.292 
			3.411,13.125 		"/>
	</defs>
	<clipPath id="SVGID_2_">
		<use xlink:href="#SVGID_1_"  overflow="visible"/>
	</clipPath>
	<g clip-path="url(#SVGID_2_)">
		<g>
			<path fill="none" stroke="#FFFFFF" stroke-width="1.5" stroke-linecap="round" stroke-miterlimit="10" d="M23.945,10.5
				c0,1.243-0.504,2.368-1.318,3.182C21.813,14.496,20.688,15,19.445,15s-2.368-0.504-3.182-1.318
				c-0.814-0.814-1.318-1.939-1.318-3.182s0.504-2.368,1.318-3.182C17.078,6.504,18.203,6,19.445,6s2.368,0.504,3.182,1.318
				C23.441,8.132,23.945,9.257,23.945,10.5z"/>
		</g>
	</g>
	<g clip-path="url(#SVGID_2_)">
		<g>
			<path fill="none" stroke="#FFFFFF" stroke-width="1.5" stroke-linecap="round" stroke-miterlimit="10" d="M27.946,10.5
				c0,2.347-0.951,4.472-2.49,6.01c-1.538,1.539-3.663,2.49-6.01,2.49s-4.472-0.951-6.01-2.49c-1.538-1.538-2.49-3.663-2.49-6.01
				s0.952-4.472,2.49-6.01C14.974,2.951,17.099,2,19.446,2s4.472,0.951,6.01,2.49C26.995,6.028,27.946,8.153,27.946,10.5z"/>
		</g>
	</g>
	<g clip-path="url(#SVGID_2_)">
		<g>
			<path fill="none" stroke="#FFFFFF" stroke-width="1.5" stroke-linecap="round" stroke-miterlimit="10" d="M31.946,10.5
				c0,3.452-1.399,6.577-3.662,8.839C26.022,21.601,22.897,23,19.446,23s-6.577-1.399-8.839-3.661
				c-2.262-2.262-3.661-5.387-3.661-8.839s1.399-6.577,3.661-8.839C12.869-0.601,15.994-2,19.446-2s6.577,1.399,8.838,3.661
				C30.547,3.923,31.946,7.048,31.946,10.5z"/>
		</g>
	</g>
</g>
</svg>
